<?xml version="1.0" encoding="UTF-8" standalone="no"?>
<!-- Created with Inkscape (http://www.inkscape.org/) -->

<svg
   xmlns:dc="http://purl.org/dc/elements/1.1/"
   xmlns:cc="http://creativecommons.org/ns#"
   xmlns:rdf="http://www.w3.org/1999/02/22-rdf-syntax-ns#"
   xmlns:svg="http://www.w3.org/2000/svg"
   xmlns="http://www.w3.org/2000/svg"
   xmlns:sodipodi="http://sodipodi.sourceforge.net/DTD/sodipodi-0.dtd"
   xmlns:inkscape="http://www.inkscape.org/namespaces/inkscape"
   width="500mm"
   height="500mm"
   viewBox="0 0 500 500"
   version="1.1"
   id="svg8"
   inkscape:version="0.92.3 (2405546, 2018-03-11)"
   sodipodi:docname="RootGeo_1A.svg">
  <defs
     id="defs2" />
  <sodipodi:namedview
     id="base"
     pagecolor="#ffffff"
     bordercolor="#666666"
     borderopacity="1.0"
     inkscape:pageopacity="0.0"
     inkscape:pageshadow="2"
     inkscape:zoom="0.35"
     inkscape:cx="425.36732"
     inkscape:cy="976.61981"
     inkscape:document-units="mm"
     inkscape:current-layer="layer2"
     showgrid="false"
     inkscape:snap-global="false"
     inkscape:window-width="1920"
     inkscape:window-height="1025"
     inkscape:window-x="0"
     inkscape:window-y="27"
     inkscape:window-maximized="1"
     fit-margin-top="0"
     fit-margin-left="0"
     fit-margin-right="0"
     fit-margin-bottom="0" />
  <metadata
     id="metadata5">
    <rdf:RDF>
      <cc:Work
         rdf:about="">
        <dc:format>image/svg+xml</dc:format>
        <dc:type
           rdf:resource="http://purl.org/dc/dcmitype/StillImage" />
        <dc:title />
      </cc:Work>
    </rdf:RDF>
  </metadata>
  <g
     inkscape:groupmode="layer"
     id="layer2"
     inkscape:label="Layer 2"
     style="display:inline"
     transform="translate(457.56543,78.986969)">
    <path
       style="display:inline;opacity:0.98999999;fill:#000000;fill-opacity:1;stroke:#000000;stroke-width:0;stroke-linecap:square;stroke-linejoin:round;stroke-miterlimit:4;stroke-dasharray:none;stroke-dashoffset:0;stroke-opacity:1"
       d="m -272.44847,-72.992847 134.33708,-0.240041 c 0,0 -0.82732,138.265566 -1.03743,207.399148 -0.0769,25.30064 0.4168,50.68712 -0.0817,75.90219 -0.59298,29.9919 -6.50261,59.94211 -14.80813,88.79171 -3.22434,11.19991 -8.15315,22.02939 -13.47176,32.29294 -5.76628,11.12741 -12.90767,21.26864 -19.85315,31.48558 -4.51952,6.6483 -7.905,14.94637 -14.18081,19.37577 -4.33647,3.06065 -9.78789,4.0068 -14.88985,4.03662 -5.33216,0.0312 -11.38627,-0.31448 -15.5989,-4.03662 -7.76635,-6.8621 -9.34366,-19.71262 -13.47177,-29.87095 -6.22984,-15.33019 -12.31582,-30.80356 -17.01698,-46.82475 -4.79566,-16.34324 -9.14678,-33.00542 -11.34466,-50.05403 -2.64504,-20.51715 -1.72512,-41.43453 -2.1271,-62.16389 -1.71973,-88.68247 -1.21731,-266.093677 -1.21731,-266.093677 z"
       id="path919"
       inkscape:connector-curvature="0"
       sodipodi:nodetypes="ccasaaaaaaaaaacc" />
  </g>
</svg>
